<svg width="1440" height="862" viewBox="0 0 1440 862" fill="none" xmlns="http://www.w3.org/2000/svg">
    <mask id="mask0"  maskUnits="userSpaceOnUse" x="-42" y="-55" width="1512" height="917">
        <rect x="-42" y="-55" width="1512" height="917" fill="#C4C4C4"/>
    </mask>
    <g mask="url(#mask0)">
        <path opacity="0.0909" d="M1115.43 -503.684L1139.88 146.669L1821.6 194.078L1120.48 643.425L1044.12 1323.08L586.364 950.438L-142.561 1323.08L275.64 643.425L-98.4915 194.078L617.741 146.669L1115.43 -503.684Z" stroke="#FFB800" stroke-width="5.4545" stroke-miterlimit="10"/>
        <path opacity="0.1818" d="M1150.87 -590.229L1177.37 114.911L1916.53 166.31L1156.36 653.516L1073.56 1390.43L577.227 986.397L-213.102 1390.43L240.339 653.516L-165.318 166.31L611.242 114.911L1150.87 -590.229Z" stroke="#FFB800" stroke-width="5.9091" stroke-miterlimit="10"/>
        <path opacity="0.2727" d="M1186.31 -676.774L1214.88 83.1532L2011.48 138.552L1192.22 663.616L1102.98 1457.79L568.091 1022.37L-283.652 1457.79L205.027 663.616L-232.145 138.552L604.754 83.1532L1186.31 -676.774Z" stroke="#FFB800" stroke-width="6.3636" stroke-miterlimit="10"/>
        <path opacity="0.3636" d="M1221.76 -763.329L1252.38 51.3958L2106.41 110.795L1228.09 673.716L1132.42 1525.14L558.965 1058.32L-354.193 1525.14L169.714 673.716L-298.983 110.795L598.265 51.3958L1221.76 -763.329Z" stroke="#FFB800" stroke-width="6.8182" stroke-miterlimit="10"/>
        <path opacity="0.4545" d="M1257.2 -849.874L1289.88 19.6379L2201.34 83.0268L1263.95 683.806L1161.85 1592.5L549.828 1094.28L-424.734 1592.5L134.401 683.806L-365.81 83.0268L591.776 19.6379L1257.2 -849.874Z" stroke="#FFB800" stroke-width="7.2727" stroke-miterlimit="10"/>
        <path opacity="0.5455" d="M1292.64 -936.419L1327.38 -12.1197L2296.28 55.2691L1299.82 693.907L1191.29 1659.85L540.701 1130.25L-495.286 1659.85L99.0883 693.907L-432.647 55.2691L585.288 -12.1197L1292.64 -936.419Z" stroke="#FFB800" stroke-width="7.7273" stroke-miterlimit="10"/>
        <path opacity="0.6364" d="M1328.08 -1022.97L1364.88 -43.8669L2391.22 27.5009L1335.68 703.996L1220.72 1727.21L531.565 1166.21L-565.826 1727.21L63.7866 703.996L-499.474 27.5009L578.799 -43.8669L1328.08 -1022.97Z" stroke="#FFB800" stroke-width="8.1818" stroke-miterlimit="10"/>
        <path opacity="0.7273" d="M1363.52 -1109.52L1402.38 -75.6245L2486.15 -0.256763L1371.55 714.097L1250.15 1794.57L522.428 1202.17L-636.367 1794.57L28.4737 714.097L-566.301 -0.256763L572.311 -75.6245L1363.52 -1109.52Z" stroke="#FFB800" stroke-width="8.6364" stroke-miterlimit="10"/>
        <path opacity="0.8182" d="M1398.97 -1196.06L1439.88 -107.382L2581.09 -28.0142L1407.43 724.187L1279.59 1861.92L513.302 1238.14L-706.918 1861.92L-6.83885 724.187L-633.139 -28.0142L565.822 -107.382L1398.97 -1196.06Z" stroke="#FFB800" stroke-width="9.0909" stroke-miterlimit="10"/>
        <path opacity="0.9091" d="M1434.4 -1282.62L1477.39 -139.14L2676.02 -55.7829L1443.29 734.287L1309.02 1929.28L504.165 1274.09L-777.459 1929.28L-42.1513 734.287L-699.965 -55.7829L559.334 -139.14L1434.4 -1282.62Z" stroke="#FFB800" stroke-width="9.5455" stroke-miterlimit="10"/>
        <path d="M495.028 1310.05L-848 1996.64L-77.4534 744.377L-766.803 -83.5403L552.845 -170.898L1469.84 -1369.16L1514.88 -170.898L2770.97 -83.5403L1479.16 744.377L1338.46 1996.64L495.028 1310.05Z" stroke="#FFB800" stroke-width="10" stroke-miterlimit="10"/>
    </g>
</svg>
