<svg width="1440" height="777" viewBox="0 0 1440 777" fill="none" xmlns="http://www.w3.org/2000/svg">
<mask id="mask0"  maskUnits="userSpaceOnUse" x="-12" y="0" width="1452" height="777">
<rect x="-12" width="1452" height="777" fill="#10193E"/>
</mask>
<g mask="url(#mask0)">
<path opacity="0.0909" d="M1807.28 -204.128L1241.21 285.298L1564.48 766.97L788.426 634.167L142.217 1078.79L228.657 507.295L-493.994 300.414L335.482 80.0078L535.069 -492.476L961.281 -57.1863L1807.28 -204.128Z" stroke="#FFB800" stroke-width="5.4545" stroke-miterlimit="10"/>
<path opacity="0.1818" d="M1903.35 -243.877L1289.6 286.777L1640.11 809.028L798.672 665.041L98.0134 1147.13L191.737 527.476L-591.798 303.174L307.571 64.1973L523.971 -556.522L986.08 -84.5652L1903.35 -243.877Z" stroke="#FFB800" stroke-width="5.9091" stroke-miterlimit="10"/>
<path opacity="0.2727" d="M1999.43 -283.628L1337.99 288.263L1715.73 851.099L808.903 695.915L53.8032 1215.46L154.806 547.665L-689.608 305.926L279.643 48.3864L512.862 -620.561L1010.88 -111.938L1999.43 -283.628Z" stroke="#FFB800" stroke-width="6.3636" stroke-miterlimit="10"/>
<path opacity="0.3636" d="M2095.52 -323.379L1386.37 289.741L1791.34 893.165L819.141 726.797L9.60984 1283.79L117.891 567.852L-787.402 308.677L251.717 32.5757L501.749 -684.606L1035.69 -139.31L2095.52 -323.379Z" stroke="#FFB800" stroke-width="6.8182" stroke-miterlimit="10"/>
<path opacity="0.4545" d="M2191.59 -363.129L1434.76 291.227L1866.97 935.222L829.381 757.664L-34.594 1352.13L80.9696 588.033L-885.206 311.437L223.8 16.7575L490.651 -748.652L1060.49 -166.683L2191.59 -363.129Z" stroke="#FFB800" stroke-width="7.2727" stroke-miterlimit="10"/>
<path opacity="0.5455" d="M2287.66 -402.879L1483.15 292.706L1942.59 977.287L839.618 788.545L-78.7983 1420.47L44.0441 608.229L-983.016 314.19L195.872 0.947261L479.537 -812.698L1085.29 -194.055L2287.66 -402.879Z" stroke="#FFB800" stroke-width="7.7273" stroke-miterlimit="10"/>
<path opacity="0.6364" d="M2383.74 -442.638L1531.52 294.191L2018.22 1019.35L849.859 819.411L-123.001 1488.8L7.12357 628.409L-1080.82 316.948L167.961 -14.8652L468.439 -876.745L1110.09 -221.421L2383.74 -442.638Z" stroke="#FFB800" stroke-width="8.1818" stroke-miterlimit="10"/>
<path opacity="0.7273" d="M2479.82 -482.387L1579.92 295.678L2093.83 1061.42L860.096 850.293L-167.211 1557.13L-29.7982 648.591L-1178.62 319.708L140.034 -30.675L457.331 -940.783L1134.89 -248.793L2479.82 -482.387Z" stroke="#FFB800" stroke-width="8.6364" stroke-miterlimit="10"/>
<path opacity="0.8182" d="M2575.9 -522.13L1628.3 297.156L2169.45 1103.48L870.341 881.167L-211.416 1625.47L-66.724 668.786L-1276.43 322.461L112.115 -46.4929L446.217 -1004.83L1159.69 -276.165L2575.9 -522.13Z" stroke="#FFB800" stroke-width="9.0909" stroke-miterlimit="10"/>
<path opacity="0.9091" d="M2671.98 -561.889L1676.69 298.642L2245.08 1145.54L880.573 912.042L-255.62 1693.81L-103.645 688.967L-1374.24 325.22L84.1892 -62.3034L435.119 -1068.87L1184.5 -303.537L2671.98 -561.889Z" stroke="#FFB800" stroke-width="9.5455" stroke-miterlimit="10"/>
<path d="M-140.567 709.149L-1472.04 327.98L56.2761 -78.1144L424.004 -1132.92L1209.3 -330.91L2768.05 -601.638L1725.07 300.121L2320.7 1187.61L890.818 942.916L-299.825 1762.14L-140.567 709.149Z" stroke="#FFB800" stroke-width="10" stroke-miterlimit="10"/>
</g>
</svg>
