<svg width="1440" height="853" viewBox="0 0 1440 853" fill="none" xmlns="http://www.w3.org/2000/svg">
<mask id="mask0" mask-type="alpha" maskUnits="userSpaceOnUse" x="-12" y="0" width="1452" height="853">
<rect x="-12" width="1452" height="853" fill="#10193E"/>
</mask>
<g mask="url(#mask0)">
<path opacity="0.0909" d="M1769.01 -161.397L1243.34 293.101L1543.54 740.398L822.866 617.073L222.774 1029.97L303.046 499.255L-368.034 307.138L402.247 102.461L587.59 -429.167L983.386 -24.9421L1769.01 -161.397Z" stroke="#FFB800" stroke-width="5.4545" stroke-miterlimit="10"/>
<path opacity="0.1818" d="M1858.23 -198.31L1288.27 294.474L1613.77 779.454L832.381 645.743L181.724 1093.43L268.759 517.996L-458.859 309.701L376.327 87.7786L577.283 -488.643L1006.41 -50.3674L1858.23 -198.31Z" stroke="#FFB800" stroke-width="5.9091" stroke-miterlimit="10"/>
<path opacity="0.2727" d="M1947.44 -235.224L1333.21 295.853L1683.99 818.523L841.882 674.414L140.67 1156.88L234.464 536.743L-549.689 312.256L350.393 73.096L566.968 -548.112L1029.45 -75.7867L1947.44 -235.224Z" stroke="#FFB800" stroke-width="6.3636" stroke-miterlimit="10"/>
<path opacity="0.3636" d="M2036.68 -272.138L1378.14 297.227L1754.21 857.587L851.389 703.092L99.6297 1220.34L200.183 555.491L-640.504 314.812L324.459 58.414L556.648 -607.586L1052.48 -101.206L2036.68 -272.138Z" stroke="#FFB800" stroke-width="6.8182" stroke-miterlimit="10"/>
<path opacity="0.4545" d="M2125.89 -309.051L1423.08 298.607L1824.44 896.643L860.899 731.756L58.5808 1283.8L165.897 574.232L-731.327 317.374L298.534 43.7247L546.342 -667.062L1075.51 -126.624L2125.89 -309.051Z" stroke="#FFB800" stroke-width="7.2727" stroke-miterlimit="10"/>
<path opacity="0.5455" d="M2215.11 -345.965L1468.01 299.98L1894.66 935.706L870.404 760.434L17.5306 1347.26L131.606 592.986L-822.158 319.93L272.6 29.0424L536.021 -726.537L1098.55 -152.044L2215.11 -345.965Z" stroke="#FFB800" stroke-width="7.7273" stroke-miterlimit="10"/>
<path opacity="0.6364" d="M2304.34 -382.886L1512.93 301.359L1964.89 974.768L879.915 789.097L-23.5175 1410.72L97.3212 611.726L-912.981 322.492L246.681 14.3589L525.715 -786.013L1121.57 -177.456L2304.34 -382.886Z" stroke="#FFB800" stroke-width="8.1818" stroke-miterlimit="10"/>
<path opacity="0.7273" d="M2393.55 -419.799L1557.87 302.739L2035.11 1013.83L889.421 817.775L-64.5724 1474.17L63.0343 630.467L-1003.81 325.055L220.746 -0.323113L515.4 -845.482L1144.61 -202.875L2393.55 -419.799Z" stroke="#FFB800" stroke-width="8.6364" stroke-miterlimit="10"/>
<path opacity="0.8182" d="M2482.77 -456.706L1602.8 304.113L2105.33 1052.89L898.936 846.446L-105.622 1537.63L28.744 649.221L-1094.64 327.611L194.821 -15.012L505.079 -904.956L1167.64 -228.294L2482.77 -456.706Z" stroke="#FFB800" stroke-width="9.0909" stroke-miterlimit="10"/>
<path opacity="0.9091" d="M2572 -493.627L1647.74 305.492L2175.56 1091.95L908.437 875.117L-146.672 1601.09L-5.5423 667.962L-1185.46 330.173L168.887 -29.6946L494.772 -964.432L1190.67 -253.713L2572 -493.627Z" stroke="#FFB800" stroke-width="9.5455" stroke-miterlimit="10"/>
<path d="M-39.8293 686.703L-1276.29 332.736L142.966 -44.3774L484.451 -1023.91L1213.7 -279.132L2661.22 -530.54L1692.67 306.866L2245.79 1131.02L917.952 903.787L-187.722 1664.55L-39.8293 686.703Z" stroke="#FFB800" stroke-width="10" stroke-miterlimit="10"/>
</g>
</svg>
