<svg width="1440" height="774" viewBox="0 0 1440 774" fill="none" xmlns="http://www.w3.org/2000/svg">
<mask id="mask0" mask-type="alpha" maskUnits="userSpaceOnUse" x="0" y="0" width="1440" height="774">
<rect width="1440" height="774" fill="#10193E"/>
</mask>
<g mask="url(#mask0)">
<g opacity="0.0909">
<path opacity="0.0909" d="M992.875 25.8907L-140.86 225.799L-140.121 229.994L993.615 30.0857L992.875 25.8907Z" fill="#FFB800"/>
</g>
<g opacity="0.1818">
<path opacity="0.1818" d="M989.635 7.51689L-144.1 207.425L-143.298 211.974L990.438 12.0661L989.635 7.51689Z" fill="#FFB800"/>
</g>
<g opacity="0.2727">
<path opacity="0.2727" d="M986.395 -10.8645L-147.341 189.044L-146.478 193.939L987.258 -5.96893L986.395 -10.8645Z" fill="#FFB800"/>
</g>
<g opacity="0.3636">
<path opacity="0.3636" d="M983.155 -29.238L-150.581 170.67L-149.655 175.92L984.081 -23.9884L983.155 -29.238Z" fill="#FFB800"/>
</g>
<g opacity="0.4545">
<path opacity="0.4545" d="M979.914 -47.6193L-153.822 152.289L-152.835 157.885L980.9 -42.0234L979.914 -47.6193Z" fill="#FFB800"/>
</g>
<g opacity="0.5455">
<path opacity="0.5455" d="M976.674 -65.9929L-157.062 133.915L-156.012 139.865L977.723 -60.0428L976.674 -65.9929Z" fill="#FFB800"/>
</g>
<g opacity="0.6364">
<path opacity="0.6364" d="M973.433 -84.3742L-160.303 115.534L-159.192 121.83L974.543 -78.0778L973.433 -84.3742Z" fill="#FFB800"/>
</g>
<g opacity="0.7273">
<path opacity="0.7273" d="M970.193 -102.748L-163.542 97.1602L-162.37 103.811L971.366 -96.0975L970.193 -102.748Z" fill="#FFB800"/>
</g>
<g opacity="0.8182">
<path opacity="0.8182" d="M966.952 -121.129L-166.784 78.7788L-165.55 85.7757L968.186 -114.132L966.952 -121.129Z" fill="#FFB800"/>
</g>
<g opacity="0.9091">
<path opacity="0.9091" d="M963.712 -139.503L-170.023 60.4053L-168.727 67.7563L965.008 -132.152L963.712 -139.503Z" fill="#FFB800"/>
</g>
<path d="M960.472 -157.884L-173.264 42.0237L-171.906 49.7211L961.829 -150.187L960.472 -157.884Z" fill="#FFB800"/>
</g>
</svg>
